<svg width="253" height="86" viewBox="0 0 253 86" fill="none" xmlns="http://www.w3.org/2000/svg">
<path fill-rule="evenodd" clip-rule="evenodd" d="M140.822 3.03564C131.896 5.7176 123.65 9.36897 114.261 14.7966C109.943 17.2924 103.702 21.3691 103.702 21.6936C103.702 22.1386 108.965 22.3427 112.329 22.0279C120.017 21.309 126.586 18.3747 137.011 11.0025C141.553 7.78991 144.896 5.99864 148.219 4.99541C155.217 2.883 165.024 2.93987 175.728 5.15493C187.125 7.51276 201.08 12.4595 211.998 18.0116C215.105 19.5919 216.033 19.9322 217.201 19.9196L218.622 19.9047L215.867 18.5249C202.306 11.7328 187.625 6.17193 174.551 2.87522L170.991 1.97734L164.425 0.494336L161.5 0H158H154.307L150.765 0.494336L144.253 2.00488L142.67 2.47168L140.822 3.03564ZM234.053 21.4858C228.852 24.0589 223.191 25.0199 213.222 25.022C210.42 25.0223 206.733 25.1629 205.027 25.3341C197.833 26.056 191.264 28.9487 185.778 33.8104C183.974 35.4086 183.882 35.5466 184.735 35.3634C186.677 34.9462 188.683 35.8037 189.627 37.4543C189.932 37.9867 190.093 37.9011 191.742 36.3317C197.567 30.7849 204.079 28.0158 211.298 28.0158C212.71 28.0158 216.451 28.3759 219.61 28.8161C229.395 30.1794 235.108 29.7194 240.536 27.1311C242.835 26.0348 246.171 23.5551 245.803 23.2164C245.378 22.824 237.868 19.9319 237.414 19.9852C237.177 20.013 235.665 20.6882 234.053 21.4858ZM101.628 22.0422C100.086 22.648 91.947 24.4575 87.5455 25.1731C84.9714 25.5918 78.774 26.4029 73.7736 26.9761C55.1374 29.1115 51.8211 29.6287 43.1059 31.7597C27.738 35.5176 14.909 41.2685 4.55919 49.039C1.27779 51.5028 0.339771 52.8795 0.0459699 55.6615C-0.791976 63.6023 9.96513 75.5665 20.9178 78.8755C23.1972 79.5642 28.1879 80.0879 27.6507 79.5818C27.4824 79.4235 26.6561 79.0518 25.8145 78.7558C20.8364 77.0052 16.2167 73.7965 14.0334 70.5734C11.6964 67.1229 11.238 62.11 12.9472 58.6933C14.1549 56.2795 17.772 52.8227 21.8359 50.1985C31.7355 43.8065 49.5347 37.4747 63.1517 35.5011C79.514 33.1298 94.0872 28.5195 100.864 23.5707C103.144 21.906 103.429 21.335 101.628 22.0422ZM124.972 23.1266C124.636 23.1975 122.845 23.6174 120.994 24.0598C118.015 24.7712 117.021 24.8646 112.361 24.8708C109.12 24.875 106.972 24.998 106.775 25.1902C106.286 25.6691 107.984 28.0619 109.821 29.482C111.805 31.0156 113.831 31.6073 117.099 31.6073C119.217 31.6073 124.243 30.8672 126.389 30.2393C126.663 30.159 127.869 28.8326 129.07 27.2909C131.371 24.3357 131.526 23.7293 130.114 23.2041C129.374 22.929 126.139 22.8802 124.972 23.1266ZM164.605 23.1272C157.358 23.4516 151.655 24.6233 137.673 28.6602C125.138 32.2789 120.851 33.1565 108.599 34.6098C105.653 34.9594 102.968 35.3724 102.631 35.5275C101.857 35.8848 115.101 35.6271 119.617 35.197C128.266 34.3737 131.872 33.6799 141.346 31.0165C160.437 25.6496 167.181 24.7966 182.662 25.7924C184.975 25.9411 185.202 25.9112 184.712 25.5221C184.042 24.99 176.676 23.5962 173.404 23.3822C169.254 23.111 166.65 23.0356 164.605 23.1272ZM248.607 25.2991C247.735 26.1521 243.071 28.436 240.657 29.1932C236.376 30.5353 234.701 30.7528 227.803 30.8639C220.858 30.9755 216.661 31.4574 212.144 32.6608C205.925 34.3177 202.633 36.0581 198.851 39.6882C195.039 43.3474 191.231 49.2722 191.231 51.545V52.647L192.725 50.7318C197.987 43.9903 205.22 39.4781 214.337 37.2505C217.878 36.3852 224.486 36.1802 228.236 36.8195C233.051 37.6405 237.405 39.324 241.269 41.859C244.759 44.1486 246.252 45.5565 250.656 50.7094C251.496 51.692 252 51.1631 252.401 48.8783C253.66 41.7201 252.674 28.58 250.683 25.9615C250.038 25.1136 249.102 24.8149 248.607 25.2991ZM79.066 34.775C59.3657 36.1991 48.7732 38.2971 39.2498 42.6614C30.5851 46.6321 23.3701 53.0753 21.3763 58.6227C18.9567 65.355 23.7735 70.4145 33.1773 71.0185C36.4397 71.2283 36.716 71.0164 35.3107 69.3831C32.1003 65.6519 31.8298 59.7468 34.6288 54.5032C36.492 51.0126 41.2773 47.0287 46.9443 44.2497C55.0676 40.2665 63.758 38.2872 82.6981 36.1072C87.4819 35.5565 88.7063 35.2419 88.7063 34.5637C88.7063 34.2213 85.8629 34.2839 79.066 34.775ZM79.398 42.3406C79.3084 42.4824 80.2764 43.2205 81.5486 43.981C83.7772 45.3125 83.8944 45.3472 84.7388 44.9202C85.2211 44.6765 85.8978 44.4769 86.2427 44.4769C88.2748 44.4769 85.1336 43.0062 81.8234 42.4076C79.657 42.0161 79.604 42.0146 79.398 42.3406ZM58.5611 44.4688C54.7802 45.4526 52.0503 46.8934 49.3266 49.3422C46.4813 51.9009 44.0207 55.9916 43.072 59.7408C42.4767 62.0942 42.5434 67.5272 43.1968 69.883C46.1492 80.5303 56.9473 87.1611 67.9153 85.0628C75.2227 83.6648 81.4938 78.3491 83.9189 71.4971L84.7896 69.0372L84.1582 62.7314C83.5715 56.8706 83.4608 56.3041 82.5885 54.7037C79.8063 49.599 74.2883 45.4987 68.6213 44.3246C65.695 43.7182 61.1977 43.7825 58.5611 44.4688ZM211.802 44.4826C197.697 48.0965 191.496 64.5427 199.754 76.4357C203.483 81.8047 210.59 85.48 217.244 85.48C219.536 85.48 223.261 84.7566 225.51 83.8746C230.664 81.8538 235.647 76.6925 237.398 71.5614C241.419 59.7773 234.678 47.498 222.519 44.4566C219.459 43.6913 214.846 43.7023 211.802 44.4826ZM182.878 44.916C179.807 45.2572 179.502 45.3511 178.56 46.2442C177.484 47.2645 175.212 51.949 175.378 52.8056C175.498 53.4228 177.232 53.5691 180.498 53.2375C182.715 53.0124 182.781 52.9819 183.195 51.9883L183.619 50.9701L181.047 51.1634C179.633 51.2697 178.394 51.278 178.296 51.1817C178.016 50.9075 179.248 48.2737 179.913 47.7242C180.243 47.4525 181.374 47.1352 182.428 47.0194C184.372 46.806 185.764 46.1877 186.784 45.0851C187.455 44.3605 187.76 44.3736 182.878 44.916ZM175.752 45.5792C175.282 45.6702 174.753 46.4983 173.727 48.7535L172.337 51.8051L171.007 52.0272C170.275 52.1493 169.553 52.1289 169.403 51.982C169.242 51.8251 169.594 50.6833 170.253 49.2183C170.871 47.8451 171.452 46.5534 171.543 46.3475C171.73 45.9267 170.218 45.8228 169.59 46.2131C168.991 46.5851 166.418 52.6368 166.51 53.4557C166.594 54.2015 166.604 54.2036 169.502 54.1291C173.533 54.0255 173.563 54.0133 174.393 52.1918C174.789 51.3232 175.497 49.7816 175.968 48.7658C176.438 47.7503 176.912 46.572 177.021 46.147C177.226 45.3475 177.143 45.3101 175.752 45.5792ZM68.009 46.12C78.4799 48.2896 85.2514 58.9752 82.594 69.1359C80.9837 75.2933 76.0438 80.6048 70.1038 82.5658C58.6296 86.3539 46.3087 78.8561 44.6524 67.0774C42.8455 54.2291 54.9082 43.4057 68.009 46.12ZM221.376 46.1227C228.261 47.5318 234.262 53.1666 236.058 59.9096C236.654 62.1454 236.66 67.148 236.071 69.3182C234.352 75.6429 228.875 81.0669 222.294 82.9624C219.885 83.6561 215.041 83.666 212.386 82.9824C209.219 82.1674 206.337 80.5043 203.754 78.001C200.016 74.3777 198.362 70.8093 198.054 65.7003C197.297 53.1788 208.774 43.5443 221.376 46.1227ZM162.168 46.8356L160.803 47.0209L159.044 50.7621C158.076 52.8197 157.279 54.6858 157.272 54.9091C157.256 55.446 162.401 55.0841 164.083 54.4302C165.232 53.9833 166.441 52.3327 166.441 51.2107C166.441 50.9506 166.734 50.3499 167.093 49.8761C167.463 49.3865 167.76 48.5191 167.781 47.8679L167.818 46.7216L165.676 46.686C164.498 46.6662 162.919 46.7336 162.168 46.8356ZM154.506 47.5129C151.556 47.8029 151.513 47.8359 150.186 50.8755C149.746 51.8832 149.021 53.4901 148.575 54.4466L147.764 56.1858L148.876 56.0928C149.971 56.0012 150.009 55.9527 151.431 52.8571L152.875 49.7145L154.456 49.6241C155.631 49.5568 156.036 49.6382 156.036 49.9417C156.036 50.4544 154.912 51.6557 154.417 51.6725C154.213 51.6794 153.507 52.1508 152.848 52.72L151.649 53.755L153.154 53.7544C155.318 53.7538 156.641 53.0002 157.619 51.211C159.58 47.6249 159.105 47.061 154.506 47.5129ZM59.1732 48.4683C56.3674 49.4889 53.9236 50.9734 52.0029 52.8248C48.4421 56.2565 46.8758 60.5408 47.1784 66.0215C47.37 69.4927 47.8655 71.667 48.3555 71.1879C48.5565 70.9912 48.5275 70.4477 48.2701 69.5807C48.0519 68.8462 47.8851 66.7583 47.8906 64.8288C47.9022 60.6857 48.5336 58.5461 50.6502 55.4789C52.7065 52.4988 56.3049 50.0479 60.6269 48.6835C61.2583 48.4844 61.7746 48.1971 61.7746 48.0451C61.7746 47.6353 61.2108 47.7272 59.1732 48.4683ZM212.271 48.7891C209.011 50.1811 207.12 51.4253 205.295 53.3782C202.305 56.5767 201.016 60.1985 201.058 65.2777C201.084 68.4437 201.584 71.2872 202.095 71.1789C202.47 71.0993 202.474 71.1654 201.968 68.4212C201.191 64.1976 201.928 59.6265 203.928 56.2699C205.788 53.1477 209.845 50.182 214.107 48.8295C214.991 48.5491 215.714 48.1956 215.714 48.0445C215.714 47.5399 214.666 47.7667 212.271 48.7891ZM141.919 48.6619C134.798 49.3524 134.582 49.4006 133.501 50.5406C132.303 51.8024 130.564 55.5938 130.69 56.6665L130.787 57.4961L133.695 57.4213C137.48 57.324 137.829 57.2271 138.288 56.1436C138.5 55.6423 138.621 55.1808 138.556 55.1183C138.491 55.0554 137.405 55.1168 136.143 55.2547C134.801 55.4014 133.73 55.393 133.563 55.2347C133.262 54.9486 134.44 52.1729 135.083 51.6504C135.28 51.4911 136.322 51.2792 137.398 51.1796C138.862 51.0443 139.678 50.7797 140.631 50.132C141.331 49.6556 141.978 49.2656 142.067 49.2656C142.23 49.2656 141.184 51.8111 139.683 55.0641C139.236 56.0311 138.922 56.8718 138.984 56.932C139.164 57.108 146.072 56.4067 146.261 56.1933C146.355 56.0868 146.601 55.6115 146.808 55.1368L147.184 54.2743L144.724 54.4841C142.127 54.7055 141.477 54.3817 143.105 53.6775C144.551 53.0519 145.184 51.9592 144.1 51.9592C143.417 51.9592 143.282 51.2975 143.871 50.8318C144.081 50.6654 145.229 50.4355 146.421 50.3209C148.37 50.1338 148.641 50.0273 149.099 49.2689C149.38 48.8047 149.609 48.3447 149.609 48.2468C149.609 47.9867 147.968 48.0753 141.919 48.6619ZM165.217 49.2599C165.217 49.6601 164.944 49.9157 164.375 50.0464C163.318 50.2901 161.545 51.3181 161.545 51.6878C161.545 51.8452 162.078 51.8829 162.769 51.7749C163.569 51.6498 163.993 51.6964 163.993 51.9104C163.993 52.4318 162.911 52.8571 161.586 52.8571H160.363L161.139 50.9865C161.566 49.9579 162.073 49.0169 162.266 48.896C162.458 48.775 163.201 48.6742 163.916 48.6715C165.01 48.6676 165.217 48.7613 165.217 49.2599ZM123.901 50.3302C123.649 50.3837 122.362 50.5154 121.043 50.6229L118.643 50.8183L117.422 53.409C116.751 54.8339 116.016 56.4037 115.789 56.8976C115.563 57.3914 115.224 58.0983 115.038 58.4688C114.718 59.103 114.762 59.1423 115.785 59.1423C116.719 59.1423 116.942 58.9998 117.367 58.1273C117.864 57.1091 118.726 56.7608 120.775 56.7512C121.372 56.7485 121.428 56.8326 121.158 57.3267C120.573 58.3952 120.763 58.7316 121.877 58.6044C122.757 58.5039 122.985 58.3072 123.39 57.2989C123.653 56.6458 123.791 55.918 123.698 55.6815C123.606 55.4451 123.67 55.2514 123.841 55.2514C124.264 55.2514 125.738 52.307 125.738 51.4621C125.738 50.9138 124.864 50.0518 124.457 50.1982C124.404 50.2173 124.154 50.2766 123.901 50.3302ZM109.125 51.6525C107.983 51.7662 106.922 51.9832 106.767 52.1352C106.41 52.4836 103.09 59.6139 103.09 60.0305C103.09 60.3738 103.995 60.4403 104.76 60.1536C105.033 60.0512 105.442 59.5316 105.669 58.9989C106.071 58.0588 106.148 58.0256 108.287 57.8759C110.982 57.6874 111.816 57.1606 112.942 54.9342C113.854 53.133 113.987 52.2603 113.435 51.7198C113.043 51.3364 112.399 51.3262 109.125 51.6525ZM98.9664 52.6087C97.6238 52.7583 96.1089 53.1154 95.6 53.4024C94.6225 53.9528 93.5014 55.7653 92.3727 58.6185C91.413 61.0454 91.7215 61.36 94.8131 61.1074C99.0194 60.7635 99.2624 60.6941 99.6361 59.7259C99.8227 59.2416 99.8846 58.7927 99.7735 58.728C99.6621 58.6637 98.5667 58.7023 97.3395 58.8145C96.1123 58.9265 95.0451 58.9561 94.9677 58.8807C94.3308 58.2578 95.9161 55.4008 97.1537 54.9405C97.5794 54.7824 98.5055 54.6529 99.2122 54.6529C100.176 54.6529 100.898 54.3886 102.1 53.5973C102.981 53.0169 103.702 52.4782 103.702 52.4001C103.702 52.2046 101.867 52.2855 98.9664 52.6087ZM122.983 53.1495C122.983 53.4748 122.673 53.9307 122.295 54.162C121.636 54.5649 119.005 55.0422 119.005 54.7591C119.005 54.3712 119.962 52.8906 120.299 52.758C120.513 52.6739 121.204 52.5943 121.835 52.5814C122.783 52.562 122.983 52.6611 122.983 53.1495ZM111.047 54.3171C111.047 55.1368 110.313 55.604 108.752 55.7761C107.279 55.9383 107.172 55.8135 107.673 54.5227C107.939 53.8391 108.141 53.755 109.51 53.755C110.81 53.755 111.047 53.8418 111.047 54.3171ZM124.44 56.8227C123.647 57.4204 123.633 58.3782 124.416 58.4871C125.157 58.59 125.9 57.5928 125.618 56.8742C125.412 56.3501 125.086 56.3358 124.44 56.8227ZM112.295 58.0675C111.858 58.5823 111.956 59.4885 112.466 59.6546C112.962 59.816 113.85 58.86 113.737 58.2863C113.61 57.6389 112.767 57.5111 112.295 58.0675ZM100.703 59.2021C100.142 59.7513 100.255 60.6387 100.887 60.6387C101.592 60.6387 102.172 60.0713 102.172 59.3817C102.172 58.7639 101.265 58.6529 100.703 59.2021ZM178.968 63.4984C172.139 64.1542 171.585 64.2542 168.554 65.3816C160.378 68.4221 149.943 71.4617 142.175 73.0656C138.435 73.8378 137.447 74.2251 138.351 74.5645C138.612 74.6627 142.87 74.2691 147.813 73.69C161.068 72.1378 164.558 71.9143 172.621 72.1013C178.102 72.2282 180.456 72.4084 182.781 72.8792C184.446 73.2159 185.926 73.42 186.071 73.3326C186.216 73.2452 186.339 72.2052 186.344 71.0215C186.354 68.9342 186.646 66.1592 187.099 63.8561C187.292 62.8774 187.247 62.7382 186.751 62.7697C186.438 62.7897 182.935 63.1174 178.968 63.4984ZM141.193 66.9529C137.995 67.2588 133.174 67.8493 130.481 68.2647C124.06 69.2557 118.299 69.8617 113.365 70.0661C104.545 70.4313 103.023 70.5205 97.4286 71.0017C94.2304 71.2768 91.3181 71.6081 90.9567 71.7377C90.478 71.9095 90.0838 72.608 89.503 74.3131C89.065 75.6 88.7063 76.7739 88.7063 76.922C88.7063 77.3201 102.133 76.9178 107.681 76.354C115.694 75.5393 126.071 73.6418 132.981 71.7275C138.448 70.2128 145.022 68.0791 147.161 67.1253C149.248 66.1939 149.152 66.1912 141.193 66.9529Z" fill="#212529"/>
</svg>
